<?xml version="1.0" encoding="UTF-8" standalone="no"?>
<!-- Created with Inkscape (http://www.inkscape.org/) -->

<svg
   width="200"
   height="200"
   viewBox="0 0 52.916665 52.916666"
   version="1.1"
   id="svg1"
   inkscape:version="1.4 (86a8ad7, 2024-10-11)"
   sodipodi:docname="creaturezzz.svg"
   inkscape:export-filename="creature.svg"
   inkscape:export-xdpi="96"
   inkscape:export-ydpi="96"
   xmlns:inkscape="http://www.inkscape.org/namespaces/inkscape"
   xmlns:sodipodi="http://sodipodi.sourceforge.net/DTD/sodipodi-0.dtd"
   xmlns="http://www.w3.org/2000/svg"
   xmlns:svg="http://www.w3.org/2000/svg">
  <sodipodi:namedview
     id="namedview1"
     pagecolor="#c0c0c0"
     bordercolor="#eeeeee"
     borderopacity="1"
     inkscape:showpageshadow="0"
     inkscape:pageopacity="0"
     inkscape:pagecheckerboard="0"
     inkscape:deskcolor="#5e5e5e"
     inkscape:document-units="mm"
     borderlayer="false"
     showborder="false"
     showgrid="true"
     inkscape:zoom="3.5964084"
     inkscape:cx="80.357948"
     inkscape:cy="101.07306"
     inkscape:window-width="1920"
     inkscape:window-height="991"
     inkscape:window-x="-9"
     inkscape:window-y="-9"
     inkscape:window-maximized="1"
     inkscape:current-layer="layer1"
     inkscape:export-bgcolor="#ffffff00">
    <inkscape:grid
       id="grid1"
       units="mm"
       originx="0"
       originy="0"
       spacingx="0.99999997"
       spacingy="0.99999999"
       empcolor="#4084a5"
       empopacity="0.30196078"
       color="#3288b3"
       opacity="0.14901961"
       empspacing="5"
       enabled="true"
       visible="true"
       snapvisiblegridlinesonly="true"
       dotted="true" />
  </sodipodi:namedview>
  <defs
     id="defs1" />
  <g
     inkscape:label="Calque 1"
     inkscape:groupmode="layer"
     id="layer1"
     style="display:inline;fill:#000000">
    <path
       sodipodi:type="spiral"
       style="display:none;fill:none;fill-rule:evenodd;stroke:#000000;stroke-width:0.264583"
       id="path1"
       sodipodi:cx="14.93446"
       sodipodi:cy="15.008029"
       sodipodi:expansion="1"
       sodipodi:revolution="3"
       sodipodi:radius="7.1270633"
       sodipodi:argument="-18.071457"
       sodipodi:t0="0"
       d="m 14.93446,15.008029 c 0.254515,0.250826 -0.21254,0.46683 -0.41689,0.42302 -0.553775,-0.11872 -0.647823,-0.82624 -0.429151,-1.256799 0.391152,-0.77017 1.420776,-0.867576 2.09671,-0.435282 0.991959,0.634408 1.093772,2.023352 0.441412,2.93662 -0.869492,1.217242 -2.628778,1.322709 -3.77653,0.447543 -1.444328,-1.101307 -1.553064,-3.235563 -0.453674,-4.61644 1.331509,-1.672427 3.843113,-1.78424 5.45635,-0.459805 1.901145,1.5608 2.01593,4.451138 0.465936,6.29626 -1.789529,2.130267 -5.059482,2.247964 -7.13617,0.472067 -2.3596654,-2.017887 -2.4802378,-5.66805 -0.478197,-7.976081 2.245986,-2.5892613 6.27678,-2.7126858 8.81599,-0.484328 2.819005,2.4739 2.945265,6.885634 0.490459,9.655901" />
    <path
       sodipodi:type="spiral"
       style="display:none;fill:none;fill-rule:evenodd;stroke:#000000;stroke-width:0.264583"
       id="path2"
       sodipodi:cx="34.945164"
       sodipodi:cy="14.860891"
       sodipodi:expansion="1"
       sodipodi:revolution="3"
       sodipodi:radius="7.1796484"
       sodipodi:argument="-18.049665"
       sodipodi:t0="0"
       d="m 34.945164,14.860891 c 0.250826,0.258204 -0.224305,0.465497 -0.429152,0.41689 -0.555122,-0.131724 -0.634311,-0.846359 -0.404627,-1.275192 0.41085,-0.767082 1.449963,-0.842583 2.121233,-0.392366 0.985116,0.660712 1.057167,2.061806 0.380103,2.967274 -0.902419,1.206846 -2.676579,1.274449 -3.813314,0.367842 -1.430465,-1.140874 -1.49313,-3.292753 -0.35558,-4.659356 1.377725,-1.655139 3.909714,-1.712619 5.505396,-0.343318 1.880457,1.613674 1.932617,4.527166 0.331056,6.351437 -1.849065,2.106194 -5.144946,2.152954 -7.197478,0.318794 -2.332217,-2.084088 -2.373527,-5.762957 -0.306532,-8.043518 2.318857,-2.5584464 6.381136,-2.594274 8.88956,-0.294271 2.784826,2.55344 2.815148,6.999441 0.282008,9.735601" />
    <path
       style="display:none;fill:#000000;stroke-width:0.264583"
       id="path4"
       d="m 20.907843,27.288527 c 0.632654,-0.0085 1.259922,-0.09586 1.887273,-0.169066 0.864488,-0.121357 1.727523,-0.252992 2.588896,-0.395394 1.234248,-0.173513 2.459833,-0.40619 3.694926,-0.572806 0.636141,-0.05476 1.270992,-0.120933 1.90653,-0.181194 0.374009,-0.04284 0.566742,0.08927 -0.0348,-0.181585 0.009,0.05444 0.0232,0.108274 0.02718,0.16332 0.01611,0.223069 -0.0032,0.420457 -0.03048,0.644945 -0.04052,0.333441 -0.109535,0.751229 -0.183039,1.075301 -0.04382,0.193199 -0.09987,0.383424 -0.149797,0.575136 -0.29166,0.975566 -0.69679,1.910934 -1.075489,2.854523 -0.285588,0.667142 -0.453458,1.373521 -0.688194,2.058093 -0.181539,0.480134 -0.448977,0.677622 -0.922671,0.829477 -0.438145,0.101632 -0.840417,-0.132519 -1.217639,-0.326552 -0.08244,-0.0458 -0.171098,-0.08186 -0.247317,-0.137398 -0.04957,-0.03612 0.207669,0.123883 0.166442,0.07847 -0.07574,-0.08344 -0.184189,-0.129921 -0.274422,-0.197419 -0.346287,-0.25904 -0.680945,-0.53285 -1.013843,-0.80867 -0.32412,-0.289449 -0.664661,-0.56697 -0.951168,-0.895633 -0.118592,-0.136041 -0.161506,-0.205227 -0.264193,-0.351607 -0.179813,-0.272672 -0.375848,-0.533985 -0.565263,-0.800026 -0.237831,-0.318286 -0.448822,-0.654884 -0.640914,-1.002356 -0.139669,-0.248891 -0.231414,-0.520814 -0.308765,-0.794491 -0.02903,-0.229872 -0.139564,-0.425032 -0.264038,-0.615391 -0.10278,-0.162015 -0.163343,-0.347589 -0.276196,-0.503148 -0.06059,-0.0787 -0.138093,-0.142216 -0.210972,-0.209087 -0.0345,-0.02856 -0.06167,-0.06369 -0.08486,-0.101632 0,0 -0.453128,-0.204607 -0.453128,-0.204607 v 0 c 0.01974,0.04537 0.04996,0.08477 0.08148,0.122645 0.07961,0.05676 0.148511,0.131516 0.215792,0.201319 0.13704,0.137033 0.184577,0.341307 0.287905,0.502023 0.125501,0.184335 0.24061,0.375245 0.269421,0.600942 0.07491,0.279736 0.176056,0.554829 0.314513,0.809551 0.192029,0.346843 0.400863,0.684223 0.633966,1.005192 0.191434,0.26792 0.387628,0.53195 0.57417,0.803286 0.107266,0.155609 0.142692,0.21608 0.268467,0.360682 0.292164,0.335894 0.643834,0.614588 0.97381,0.911011 0.668719,0.554921 1.334965,1.120981 2.120426,1.507911 0.390657,0.199056 0.805619,0.435033 1.256035,0.309052 0.479124,-0.172419 0.75447,-0.376815 0.930476,-0.874615 0.223033,-0.688962 0.384006,-1.397852 0.668063,-2.066443 0.371374,-0.949701 0.757652,-1.895166 1.054692,-2.871695 0.162454,-0.610844 0.150881,-0.528408 0.273426,-1.141331 0.08552,-0.427752 0.181493,-0.866612 0.148209,-1.305461 -0.520843,-0.376863 -0.323697,-0.345256 -0.791731,-0.296763 -0.619856,0.07564 -1.239356,0.152901 -1.860825,0.21526 -0.572554,0.08345 -1.140206,0.187286 -1.710913,0.281935 -0.681344,0.112996 -0.652996,0.100459 -1.336598,0.200337 -0.213687,0.03122 -0.42713,0.06408 -0.640695,0.09613 -0.870844,0.131056 -1.744507,0.24145 -2.614916,0.37489 -0.637112,0.07319 -1.276272,0.159073 -1.919171,0.139639 z" />
    <path
       style="display:none;fill:#000000;stroke-width:0.264583"
       id="path5"
       d="m 22.016769,26.1978 c 0.143754,0.881907 0.442941,1.728179 0.73237,2.570361 0.225569,0.667573 0.460307,1.337805 0.814335,1.950556 0.218603,0.378354 0.315196,0.48378 0.576137,0.827657 0.44171,0.586459 0.995743,0.976968 1.667402,1.277501 0.254456,0.113858 0.488488,0.101002 0.758606,0.11567 0.141727,-0.02127 0.286837,-0.02643 0.42518,-0.06385 0.656463,-0.177623 1.14177,-0.691264 1.511207,-1.236724 0.112882,-0.166666 0.207378,-0.345072 0.311068,-0.517609 0.09223,-0.199091 0.196104,-0.393195 0.276688,-0.597279 0.218451,-0.553246 0.340599,-1.041498 0.48527,-1.620869 0.164357,-0.658217 0.300082,-1.32235 0.439386,-1.986103 0.02747,-0.203147 0.09598,-0.400248 0.114739,-0.604901 0,0 -0.448273,-0.212678 -0.448273,-0.212678 v 0 c 0.07162,0.07979 -0.04329,0.559333 -0.02988,0.624246 -0.213892,1.441733 -0.493593,2.89733 -1.179679,4.199194 -0.105037,0.16996 -0.200525,0.346204 -0.315116,0.509876 -0.371504,0.530632 -0.862492,1.037317 -1.51275,1.197652 -0.138845,0.03423 -0.283834,0.03521 -0.425751,0.05281 -0.931479,-0.07051 0.142462,0.03607 -0.74821,-0.129823 -0.01427,-0.0026 0.03465,0.04494 0.02225,0.03742 C 25.110997,32.35995 24.784156,32.069638 24.519778,31.709742 24.254777,31.36718 24.158366,31.26494 23.937161,30.886977 23.579545,30.275933 23.341138,29.606069 23.113479,28.938909 22.832411,28.115134 22.530593,27.282522 22.44717,26.410402 Z" />
    <path
       style="fill:#000000;stroke-width:0.264583"
       id="path6"
       d="m 31.206747,14.634174 c 0.53767,-0.01527 1.075713,0.0018 1.61295,-0.02467 0.651803,-0.04012 1.304205,-0.06179 1.953913,-0.130073 0.691865,-0.08071 1.388798,-0.08457 2.084306,-0.08688 0.728757,0.0047 1.457491,0.0071 2.186265,0.0073 0.686874,0.0032 1.373754,9.26e-4 2.060628,0.0037 0.238173,0.0031 0.47638,0.0042 0.714494,0.01068 0,0 -0.390734,-0.283884 -0.390734,-0.283884 v 0 c -0.228203,0.0067 -0.456515,0.0076 -0.684781,0.01092 -0.683245,0.0033 -1.366499,0.002 -2.049749,0.0041 -0.730078,-0.0021 -1.460148,-0.0074 -2.190226,-0.01002 -0.698246,-7.94e-4 -1.397158,0.0125 -2.092132,0.08681 -0.650425,0.06673 -1.302586,0.09147 -1.955239,0.126038 -0.545708,0.02463 -1.09212,0.01146 -1.638186,0.0037 z" />
    <path
       style="fill:#000000;stroke-width:0.264583"
       id="path7"
       d="m 22.64559,14.278351 c -0.515762,0.0078 -1.031381,0.0032 -1.546738,0.02692 -0.814184,0.04742 -1.629395,0.06164 -2.443933,0.101272 -0.837621,0.03929 -1.676397,0.04058 -2.514746,0.03892 -0.814909,0.0022 -1.627289,-0.07481 -2.442232,-0.06372 -0.602917,0.02345 -1.20573,0.05141 -1.809231,0.04952 -0.07173,-6.62e-4 -0.143537,-8.47e-4 -0.214967,-0.0079 0,0 0.399465,0.291984 0.399465,0.291984 v 0 c 0.06594,-0.0034 0.131964,-0.0049 0.19795,-0.0073 0.592601,-0.02418 1.185009,-0.05336 1.777824,-0.07203 0.813569,-0.01184 1.624115,0.0644 2.437573,0.06115 0.837754,4.5e-4 1.675623,-0.0015 2.512613,-0.04298 0.818655,-0.03678 1.637717,-0.05181 2.456214,-0.09212 0.52607,-0.01878 1.052392,-0.0073 1.578698,-0.0015 z" />
    <path
       style="fill:#000000;stroke-width:0.264583"
       id="path8"
       d="m 28.431119,24.064452 c -0.404627,0.03767 -0.811355,0.05889 -1.214876,0.108277 -0.270331,0.03308 -0.501764,0.07874 -0.770052,0.127019 -0.502925,0.101225 -0.985368,0.278355 -1.431977,0.531152 -0.300613,0.170158 -0.398777,0.25148 -0.678119,0.451344 -0.413175,0.337969 -0.854677,0.68733 -1.114354,1.166178 -0.03586,0.06612 -0.05988,0.137998 -0.08982,0.206999 -0.135179,0.392681 -0.03343,0.758307 0.137559,1.118682 0.196021,0.348732 0.435902,0.607317 0.774875,0.8156 0.369435,0.231827 0.71221,0.401346 1.142042,0.406661 0.247799,-0.03056 0.483541,-0.109116 0.716329,-0.195349 0.10368,-0.04501 0.196685,-0.12555 0.314171,-0.123391 0.146164,0.01294 0.552323,0.25129 -0.297517,-0.192379 -0.01753,-0.0092 0.03091,0.02519 0.04311,0.04075 0.01474,0.01881 0.02465,0.04093 0.03698,0.06139 0.113854,0.197644 0.116952,0.423201 0.14685,0.642345 0.02522,0.209386 0.0956,0.409271 0.184599,0.599345 0.06153,0.124812 0.129146,0.247467 0.220007,0.353449 0.160242,0.09043 0.316346,0.188608 0.480727,0.271274 0.02365,0.01191 0.05236,0.0082 0.07877,0.01011 0.175956,0.01257 0.330811,-0.04771 0.492033,-0.110482 0.269443,-0.09486 0.452527,-0.290901 0.599305,-0.527701 0.06833,-0.13427 0.156805,-0.265231 0.193503,-0.41271 0.0039,-0.09561 0.05154,-0.173725 0.09161,-0.258019 0.102436,-0.175675 0.164087,-0.370385 0.238442,-0.558623 0.125408,-0.29242 0.260903,-0.581422 0.417772,-0.858356 0.138875,-0.252618 0.30249,-0.49023 0.434608,-0.746527 0.122179,-0.224808 0.150897,-0.471654 0.151844,-0.722814 -0.0085,-0.194927 -0.09183,-0.364013 -0.179726,-0.53307 -0.114581,-0.237785 -0.243417,-0.468669 -0.355108,-0.707703 -0.08461,-0.166574 -0.144725,-0.344585 -0.224883,-0.51295 -0.109154,-0.188695 -0.443389,-0.306394 -0.573818,-0.381795 -0.131243,-0.07587 0.26401,0.149099 0.396013,0.223648 -0.0059,-0.0062 -0.01185,-0.01236 -0.01778,-0.01853 0,0 -0.453962,-0.197424 -0.453962,-0.197424 v 0 c 0.005,0.0094 0.0099,0.01879 0.0149,0.02819 0.03076,0.01871 1.065822,0.644231 0.05772,0.04533 -0.01111,-0.0066 0.150635,0.08055 0.13045,0.09972 0.09517,0.163604 0.147061,0.350948 0.239326,0.516592 0.107257,0.238384 0.239459,0.465234 0.344276,0.705207 0.08446,0.165399 0.180475,0.324139 0.194993,0.514885 5.29e-4,0.244467 -0.0177,0.485422 -0.138719,0.704568 -0.126888,0.258117 -0.294896,0.49298 -0.42999,0.746885 -0.153823,0.280662 -0.292931,0.569446 -0.424347,0.861229 -0.07802,0.185269 -0.1412,0.37805 -0.246472,0.550444 -0.04365,0.08736 -0.103251,0.165661 -0.09881,0.266814 -0.02969,0.144169 -0.114544,0.272706 -0.178467,0.403413 -0.135829,0.231756 -0.31451,0.417597 -0.575289,0.504857 -0.12854,0.04537 -0.252682,0.09126 -0.391133,0.09106 -0.03228,-4.5e-5 -0.06454,-0.0041 -0.09638,-0.0095 -0.02511,-0.0042 -0.0947,-0.03388 -0.07393,-0.01916 0.113499,0.08046 0.23698,0.145828 0.355471,0.218742 -0.105611,-0.0899 -0.164732,-0.222512 -0.231577,-0.341728 -0.09928,-0.180263 -0.165491,-0.383535 -0.195096,-0.587102 -0.03563,-0.220192 -0.02818,-0.449612 -0.133628,-0.653775 -0.105099,-0.23667 -0.369027,-0.404358 -0.629317,-0.397378 -0.115151,0.02035 -0.205227,0.09705 -0.311141,0.142166 -0.227074,0.08887 -0.460706,0.163476 -0.705846,0.179718 -0.153272,-0.0064 -0.297964,-0.02556 -0.444286,-0.07482 -0.04413,-0.01484 -0.164627,-0.08143 -0.13052,-0.04974 0.07647,0.07106 0.174562,0.114514 0.261843,0.17177 -0.350919,-0.202303 -0.585644,-0.440833 -0.791934,-0.793059 -0.170024,-0.348012 -0.277113,-0.700347 -0.158076,-1.085255 0.02721,-0.06766 0.04861,-0.137956 0.08163,-0.202978 0.243812,-0.480062 0.676582,-0.829795 1.08296,-1.165122 0.108577,-0.07774 0.214126,-0.159888 0.325731,-0.233211 0.540126,-0.354854 1.140812,-0.604924 1.774345,-0.732875 0.666691,-0.115306 1.339334,-0.192382 2.016633,-0.202966 z" />
  </g>
</svg>
