<?xml version="1.0" encoding="UTF-8" standalone="no"?>
<!-- Created with Inkscape (http://www.inkscape.org/) -->

<svg
   width="200"
   height="200"
   viewBox="0 0 52.916665 52.916666"
   version="1.1"
   id="svg1"
   inkscape:version="1.4 (86a8ad7, 2024-10-11)"
   sodipodi:docname="creaturenutre.svg"
   inkscape:export-filename="creature.svg"
   inkscape:export-xdpi="96"
   inkscape:export-ydpi="96"
   xmlns:inkscape="http://www.inkscape.org/namespaces/inkscape"
   xmlns:sodipodi="http://sodipodi.sourceforge.net/DTD/sodipodi-0.dtd"
   xmlns="http://www.w3.org/2000/svg"
   xmlns:svg="http://www.w3.org/2000/svg">
  <sodipodi:namedview
     id="namedview1"
     pagecolor="#c0c0c0"
     bordercolor="#eeeeee"
     borderopacity="1"
     inkscape:showpageshadow="0"
     inkscape:pageopacity="0"
     inkscape:pagecheckerboard="0"
     inkscape:deskcolor="#5e5e5e"
     inkscape:document-units="mm"
     borderlayer="false"
     showborder="false"
     showgrid="true"
     inkscape:zoom="3.5964084"
     inkscape:cx="80.636003"
     inkscape:cy="101.07306"
     inkscape:window-width="1920"
     inkscape:window-height="991"
     inkscape:window-x="-9"
     inkscape:window-y="-9"
     inkscape:window-maximized="1"
     inkscape:current-layer="layer1"
     inkscape:export-bgcolor="#ffffff00">
    <inkscape:grid
       id="grid1"
       units="mm"
       originx="0"
       originy="0"
       spacingx="0.99999997"
       spacingy="0.99999999"
       empcolor="#4084a5"
       empopacity="0.30196078"
       color="#3288b3"
       opacity="0.14901961"
       empspacing="5"
       enabled="true"
       visible="true"
       snapvisiblegridlinesonly="true"
       dotted="true" />
  </sodipodi:namedview>
  <defs
     id="defs1" />
  <g
     inkscape:label="Calque 1"
     inkscape:groupmode="layer"
     id="layer1"
     style="fill:#000000">
    <path
       sodipodi:type="spiral"
       style="fill:none;fill-rule:evenodd;stroke:#000000;stroke-width:0.264583"
       id="path1"
       sodipodi:cx="14.93446"
       sodipodi:cy="15.008029"
       sodipodi:expansion="1"
       sodipodi:revolution="3"
       sodipodi:radius="7.1270633"
       sodipodi:argument="-18.071457"
       sodipodi:t0="0"
       d="m 14.93446,15.008029 c 0.254515,0.250826 -0.21254,0.46683 -0.41689,0.42302 -0.553775,-0.11872 -0.647823,-0.82624 -0.429151,-1.256799 0.391152,-0.77017 1.420776,-0.867576 2.09671,-0.435282 0.991959,0.634408 1.093772,2.023352 0.441412,2.93662 -0.869492,1.217242 -2.628778,1.322709 -3.77653,0.447543 -1.444328,-1.101307 -1.553064,-3.235563 -0.453674,-4.61644 1.331509,-1.672427 3.843113,-1.78424 5.45635,-0.459805 1.901145,1.5608 2.01593,4.451138 0.465936,6.29626 -1.789529,2.130267 -5.059482,2.247964 -7.13617,0.472067 -2.3596654,-2.017887 -2.4802378,-5.66805 -0.478197,-7.976081 2.245986,-2.5892613 6.27678,-2.7126858 8.81599,-0.484328 2.819005,2.4739 2.945265,6.885634 0.490459,9.655901" />
    <path
       sodipodi:type="spiral"
       style="fill:none;fill-rule:evenodd;stroke:#000000;stroke-width:0.264583"
       id="path2"
       sodipodi:cx="34.945164"
       sodipodi:cy="14.860891"
       sodipodi:expansion="1"
       sodipodi:revolution="3"
       sodipodi:radius="7.1796484"
       sodipodi:argument="-18.049665"
       sodipodi:t0="0"
       d="m 34.945164,14.860891 c 0.250826,0.258204 -0.224305,0.465497 -0.429152,0.41689 -0.555122,-0.131724 -0.634311,-0.846359 -0.404627,-1.275192 0.41085,-0.767082 1.449963,-0.842583 2.121233,-0.392366 0.985116,0.660712 1.057167,2.061806 0.380103,2.967274 -0.902419,1.206846 -2.676579,1.274449 -3.813314,0.367842 -1.430465,-1.140874 -1.49313,-3.292753 -0.35558,-4.659356 1.377725,-1.655139 3.909714,-1.712619 5.505396,-0.343318 1.880457,1.613674 1.932617,4.527166 0.331056,6.351437 -1.849065,2.106194 -5.144946,2.152954 -7.197478,0.318794 -2.332217,-2.084088 -2.373527,-5.762957 -0.306532,-8.043518 2.318857,-2.5584464 6.381136,-2.594274 8.88956,-0.294271 2.784826,2.55344 2.815148,6.999441 0.282008,9.735601" />
    <path
       style="display:none;fill:#000000;stroke-width:0.264583"
       id="path4"
       d="m 20.907843,27.288527 c 0.632654,-0.0085 1.259922,-0.09586 1.887273,-0.169066 0.864488,-0.121357 1.727523,-0.252992 2.588896,-0.395394 1.234248,-0.173513 2.459833,-0.40619 3.694926,-0.572806 0.636141,-0.05476 1.270992,-0.120933 1.90653,-0.181194 0.374009,-0.04284 0.566742,0.08927 -0.0348,-0.181585 0.009,0.05444 0.0232,0.108274 0.02718,0.16332 0.01611,0.223069 -0.0032,0.420457 -0.03048,0.644945 -0.04052,0.333441 -0.109535,0.751229 -0.183039,1.075301 -0.04382,0.193199 -0.09987,0.383424 -0.149797,0.575136 -0.29166,0.975566 -0.69679,1.910934 -1.075489,2.854523 -0.285588,0.667142 -0.453458,1.373521 -0.688194,2.058093 -0.181539,0.480134 -0.448977,0.677622 -0.922671,0.829477 -0.438145,0.101632 -0.840417,-0.132519 -1.217639,-0.326552 -0.08244,-0.0458 -0.171098,-0.08186 -0.247317,-0.137398 -0.04957,-0.03612 0.207669,0.123883 0.166442,0.07847 -0.07574,-0.08344 -0.184189,-0.129921 -0.274422,-0.197419 -0.346287,-0.25904 -0.680945,-0.53285 -1.013843,-0.80867 -0.32412,-0.289449 -0.664661,-0.56697 -0.951168,-0.895633 -0.118592,-0.136041 -0.161506,-0.205227 -0.264193,-0.351607 -0.179813,-0.272672 -0.375848,-0.533985 -0.565263,-0.800026 -0.237831,-0.318286 -0.448822,-0.654884 -0.640914,-1.002356 -0.139669,-0.248891 -0.231414,-0.520814 -0.308765,-0.794491 -0.02903,-0.229872 -0.139564,-0.425032 -0.264038,-0.615391 -0.10278,-0.162015 -0.163343,-0.347589 -0.276196,-0.503148 -0.06059,-0.0787 -0.138093,-0.142216 -0.210972,-0.209087 -0.0345,-0.02856 -0.06167,-0.06369 -0.08486,-0.101632 0,0 -0.453128,-0.204607 -0.453128,-0.204607 v 0 c 0.01974,0.04537 0.04996,0.08477 0.08148,0.122645 0.07961,0.05676 0.148511,0.131516 0.215792,0.201319 0.13704,0.137033 0.184577,0.341307 0.287905,0.502023 0.125501,0.184335 0.24061,0.375245 0.269421,0.600942 0.07491,0.279736 0.176056,0.554829 0.314513,0.809551 0.192029,0.346843 0.400863,0.684223 0.633966,1.005192 0.191434,0.26792 0.387628,0.53195 0.57417,0.803286 0.107266,0.155609 0.142692,0.21608 0.268467,0.360682 0.292164,0.335894 0.643834,0.614588 0.97381,0.911011 0.668719,0.554921 1.334965,1.120981 2.120426,1.507911 0.390657,0.199056 0.805619,0.435033 1.256035,0.309052 0.479124,-0.172419 0.75447,-0.376815 0.930476,-0.874615 0.223033,-0.688962 0.384006,-1.397852 0.668063,-2.066443 0.371374,-0.949701 0.757652,-1.895166 1.054692,-2.871695 0.162454,-0.610844 0.150881,-0.528408 0.273426,-1.141331 0.08552,-0.427752 0.181493,-0.866612 0.148209,-1.305461 -0.520843,-0.376863 -0.323697,-0.345256 -0.791731,-0.296763 -0.619856,0.07564 -1.239356,0.152901 -1.860825,0.21526 -0.572554,0.08345 -1.140206,0.187286 -1.710913,0.281935 -0.681344,0.112996 -0.652996,0.100459 -1.336598,0.200337 -0.213687,0.03122 -0.42713,0.06408 -0.640695,0.09613 -0.870844,0.131056 -1.744507,0.24145 -2.614916,0.37489 -0.637112,0.07319 -1.276272,0.159073 -1.919171,0.139639 z" />
    <path
       style="fill:#000000;stroke-width:0.264583"
       id="path5"
       d="m 22.016769,26.1978 c 0.143754,0.881907 0.442941,1.728179 0.73237,2.570361 0.225569,0.667573 0.460307,1.337805 0.814335,1.950556 0.218603,0.378354 0.315196,0.48378 0.576137,0.827657 0.44171,0.586459 0.995743,0.976968 1.667402,1.277501 0.254456,0.113858 0.488488,0.101002 0.758606,0.11567 0.141727,-0.02127 0.286837,-0.02643 0.42518,-0.06385 0.656463,-0.177623 1.14177,-0.691264 1.511207,-1.236724 0.112882,-0.166666 0.207378,-0.345072 0.311068,-0.517609 0.09223,-0.199091 0.196104,-0.393195 0.276688,-0.597279 0.218451,-0.553246 0.340599,-1.041498 0.48527,-1.620869 0.164357,-0.658217 0.300082,-1.32235 0.439386,-1.986103 0.02747,-0.203147 0.09598,-0.400248 0.114739,-0.604901 0,0 -0.448273,-0.212678 -0.448273,-0.212678 v 0 c 0.07162,0.07979 -0.04329,0.559333 -0.02988,0.624246 -0.213892,1.441733 -0.493593,2.89733 -1.179679,4.199194 -0.105037,0.16996 -0.200525,0.346204 -0.315116,0.509876 -0.371504,0.530632 -0.862492,1.037317 -1.51275,1.197652 -0.138845,0.03423 -0.283834,0.03521 -0.425751,0.05281 -0.931479,-0.07051 0.142462,0.03607 -0.74821,-0.129823 -0.01427,-0.0026 0.03465,0.04494 0.02225,0.03742 C 25.110997,32.35995 24.784156,32.069638 24.519778,31.709742 24.254777,31.36718 24.158366,31.26494 23.937161,30.886977 23.579545,30.275933 23.341138,29.606069 23.113479,28.938909 22.832411,28.115134 22.530593,27.282522 22.44717,26.410402 Z" />
  </g>
</svg>
