<?xml version="1.0" encoding="UTF-8" standalone="no"?>
<!-- Created with Inkscape (http://www.inkscape.org/) -->

<svg
   width="200"
   height="200"
   viewBox="0 0 52.916665 52.916666"
   version="1.1"
   id="svg1"
   inkscape:version="1.4 (86a8ad7, 2024-10-11)"
   sodipodi:docname="creatureded.svg"
   inkscape:export-filename="creature.svg"
   inkscape:export-xdpi="96"
   inkscape:export-ydpi="96"
   xmlns:inkscape="http://www.inkscape.org/namespaces/inkscape"
   xmlns:sodipodi="http://sodipodi.sourceforge.net/DTD/sodipodi-0.dtd"
   xmlns="http://www.w3.org/2000/svg"
   xmlns:svg="http://www.w3.org/2000/svg">
  <sodipodi:namedview
     id="namedview1"
     pagecolor="#c0c0c0"
     bordercolor="#eeeeee"
     borderopacity="1"
     inkscape:showpageshadow="0"
     inkscape:pageopacity="0"
     inkscape:pagecheckerboard="0"
     inkscape:deskcolor="#5e5e5e"
     inkscape:document-units="mm"
     borderlayer="false"
     showborder="false"
     showgrid="true"
     inkscape:zoom="3.5964084"
     inkscape:cx="80.636003"
     inkscape:cy="101.07306"
     inkscape:window-width="1920"
     inkscape:window-height="991"
     inkscape:window-x="-9"
     inkscape:window-y="-9"
     inkscape:window-maximized="1"
     inkscape:current-layer="layer1"
     inkscape:export-bgcolor="#ffffff00">
    <inkscape:grid
       id="grid1"
       units="mm"
       originx="0"
       originy="0"
       spacingx="0.99999997"
       spacingy="0.99999999"
       empcolor="#4084a5"
       empopacity="0.30196078"
       color="#3288b3"
       opacity="0.14901961"
       empspacing="5"
       enabled="true"
       visible="true"
       snapvisiblegridlinesonly="true"
       dotted="true" />
  </sodipodi:namedview>
  <defs
     id="defs1" />
  <g
     inkscape:label="Calque 1"
     inkscape:groupmode="layer"
     id="layer1"
     style="fill:#000000">
    <path
       sodipodi:type="spiral"
       style="display:none;fill:none;fill-rule:evenodd;stroke:#000000;stroke-width:0.264583"
       id="path1"
       sodipodi:cx="14.93446"
       sodipodi:cy="15.008029"
       sodipodi:expansion="1"
       sodipodi:revolution="3"
       sodipodi:radius="7.1270633"
       sodipodi:argument="-18.071457"
       sodipodi:t0="0"
       d="m 14.93446,15.008029 c 0.254515,0.250826 -0.21254,0.46683 -0.41689,0.42302 -0.553775,-0.11872 -0.647823,-0.82624 -0.429151,-1.256799 0.391152,-0.77017 1.420776,-0.867576 2.09671,-0.435282 0.991959,0.634408 1.093772,2.023352 0.441412,2.93662 -0.869492,1.217242 -2.628778,1.322709 -3.77653,0.447543 -1.444328,-1.101307 -1.553064,-3.235563 -0.453674,-4.61644 1.331509,-1.672427 3.843113,-1.78424 5.45635,-0.459805 1.901145,1.5608 2.01593,4.451138 0.465936,6.29626 -1.789529,2.130267 -5.059482,2.247964 -7.13617,0.472067 -2.3596654,-2.017887 -2.4802378,-5.66805 -0.478197,-7.976081 2.245986,-2.5892613 6.27678,-2.7126858 8.81599,-0.484328 2.819005,2.4739 2.945265,6.885634 0.490459,9.655901" />
    <path
       sodipodi:type="spiral"
       style="display:none;fill:none;fill-rule:evenodd;stroke:#000000;stroke-width:0.264583"
       id="path2"
       sodipodi:cx="34.945164"
       sodipodi:cy="14.860891"
       sodipodi:expansion="1"
       sodipodi:revolution="3"
       sodipodi:radius="7.1796484"
       sodipodi:argument="-18.049665"
       sodipodi:t0="0"
       d="m 34.945164,14.860891 c 0.250826,0.258204 -0.224305,0.465497 -0.429152,0.41689 -0.555122,-0.131724 -0.634311,-0.846359 -0.404627,-1.275192 0.41085,-0.767082 1.449963,-0.842583 2.121233,-0.392366 0.985116,0.660712 1.057167,2.061806 0.380103,2.967274 -0.902419,1.206846 -2.676579,1.274449 -3.813314,0.367842 -1.430465,-1.140874 -1.49313,-3.292753 -0.35558,-4.659356 1.377725,-1.655139 3.909714,-1.712619 5.505396,-0.343318 1.880457,1.613674 1.932617,4.527166 0.331056,6.351437 -1.849065,2.106194 -5.144946,2.152954 -7.197478,0.318794 -2.332217,-2.084088 -2.373527,-5.762957 -0.306532,-8.043518 2.318857,-2.5584464 6.381136,-2.594274 8.88956,-0.294271 2.784826,2.55344 2.815148,6.999441 0.282008,9.735601" />
    <path
       style="display:none;fill:#000000;stroke-width:0.264583"
       id="path4"
       d="m 20.907843,27.288527 c 0.632654,-0.0085 1.259922,-0.09586 1.887273,-0.169066 0.864488,-0.121357 1.727523,-0.252992 2.588896,-0.395394 1.234248,-0.173513 2.459833,-0.40619 3.694926,-0.572806 0.636141,-0.05476 1.270992,-0.120933 1.90653,-0.181194 0.374009,-0.04284 0.566742,0.08927 -0.0348,-0.181585 0.009,0.05444 0.0232,0.108274 0.02718,0.16332 0.01611,0.223069 -0.0032,0.420457 -0.03048,0.644945 -0.04052,0.333441 -0.109535,0.751229 -0.183039,1.075301 -0.04382,0.193199 -0.09987,0.383424 -0.149797,0.575136 -0.29166,0.975566 -0.69679,1.910934 -1.075489,2.854523 -0.285588,0.667142 -0.453458,1.373521 -0.688194,2.058093 -0.181539,0.480134 -0.448977,0.677622 -0.922671,0.829477 -0.438145,0.101632 -0.840417,-0.132519 -1.217639,-0.326552 -0.08244,-0.0458 -0.171098,-0.08186 -0.247317,-0.137398 -0.04957,-0.03612 0.207669,0.123883 0.166442,0.07847 -0.07574,-0.08344 -0.184189,-0.129921 -0.274422,-0.197419 -0.346287,-0.25904 -0.680945,-0.53285 -1.013843,-0.80867 -0.32412,-0.289449 -0.664661,-0.56697 -0.951168,-0.895633 -0.118592,-0.136041 -0.161506,-0.205227 -0.264193,-0.351607 -0.179813,-0.272672 -0.375848,-0.533985 -0.565263,-0.800026 -0.237831,-0.318286 -0.448822,-0.654884 -0.640914,-1.002356 -0.139669,-0.248891 -0.231414,-0.520814 -0.308765,-0.794491 -0.02903,-0.229872 -0.139564,-0.425032 -0.264038,-0.615391 -0.10278,-0.162015 -0.163343,-0.347589 -0.276196,-0.503148 -0.06059,-0.0787 -0.138093,-0.142216 -0.210972,-0.209087 -0.0345,-0.02856 -0.06167,-0.06369 -0.08486,-0.101632 0,0 -0.453128,-0.204607 -0.453128,-0.204607 v 0 c 0.01974,0.04537 0.04996,0.08477 0.08148,0.122645 0.07961,0.05676 0.148511,0.131516 0.215792,0.201319 0.13704,0.137033 0.184577,0.341307 0.287905,0.502023 0.125501,0.184335 0.24061,0.375245 0.269421,0.600942 0.07491,0.279736 0.176056,0.554829 0.314513,0.809551 0.192029,0.346843 0.400863,0.684223 0.633966,1.005192 0.191434,0.26792 0.387628,0.53195 0.57417,0.803286 0.107266,0.155609 0.142692,0.21608 0.268467,0.360682 0.292164,0.335894 0.643834,0.614588 0.97381,0.911011 0.668719,0.554921 1.334965,1.120981 2.120426,1.507911 0.390657,0.199056 0.805619,0.435033 1.256035,0.309052 0.479124,-0.172419 0.75447,-0.376815 0.930476,-0.874615 0.223033,-0.688962 0.384006,-1.397852 0.668063,-2.066443 0.371374,-0.949701 0.757652,-1.895166 1.054692,-2.871695 0.162454,-0.610844 0.150881,-0.528408 0.273426,-1.141331 0.08552,-0.427752 0.181493,-0.866612 0.148209,-1.305461 -0.520843,-0.376863 -0.323697,-0.345256 -0.791731,-0.296763 -0.619856,0.07564 -1.239356,0.152901 -1.860825,0.21526 -0.572554,0.08345 -1.140206,0.187286 -1.710913,0.281935 -0.681344,0.112996 -0.652996,0.100459 -1.336598,0.200337 -0.213687,0.03122 -0.42713,0.06408 -0.640695,0.09613 -0.870844,0.131056 -1.744507,0.24145 -2.614916,0.37489 -0.637112,0.07319 -1.276272,0.159073 -1.919171,0.139639 z" />
    <path
       style="display:none;fill:#000000;stroke-width:0.264583"
       id="path5"
       d="m 22.016769,26.1978 c 0.143754,0.881907 0.442941,1.728179 0.73237,2.570361 0.225569,0.667573 0.460307,1.337805 0.814335,1.950556 0.218603,0.378354 0.315196,0.48378 0.576137,0.827657 0.44171,0.586459 0.995743,0.976968 1.667402,1.277501 0.254456,0.113858 0.488488,0.101002 0.758606,0.11567 0.141727,-0.02127 0.286837,-0.02643 0.42518,-0.06385 0.656463,-0.177623 1.14177,-0.691264 1.511207,-1.236724 0.112882,-0.166666 0.207378,-0.345072 0.311068,-0.517609 0.09223,-0.199091 0.196104,-0.393195 0.276688,-0.597279 0.218451,-0.553246 0.340599,-1.041498 0.48527,-1.620869 0.164357,-0.658217 0.300082,-1.32235 0.439386,-1.986103 0.02747,-0.203147 0.09598,-0.400248 0.114739,-0.604901 0,0 -0.448273,-0.212678 -0.448273,-0.212678 v 0 c 0.07162,0.07979 -0.04329,0.559333 -0.02988,0.624246 -0.213892,1.441733 -0.493593,2.89733 -1.179679,4.199194 -0.105037,0.16996 -0.200525,0.346204 -0.315116,0.509876 -0.371504,0.530632 -0.862492,1.037317 -1.51275,1.197652 -0.138845,0.03423 -0.283834,0.03521 -0.425751,0.05281 -0.931479,-0.07051 0.142462,0.03607 -0.74821,-0.129823 -0.01427,-0.0026 0.03465,0.04494 0.02225,0.03742 C 25.110997,32.35995 24.784156,32.069638 24.519778,31.709742 24.254777,31.36718 24.158366,31.26494 23.937161,30.886977 23.579545,30.275933 23.341138,29.606069 23.113479,28.938909 22.832411,28.115134 22.530593,27.282522 22.44717,26.410402 Z" />
    <path
       style="display:none;fill:#000000;stroke-width:0.264583"
       id="path6"
       d="m 23.475312,33.339799 c 0.09198,-0.874094 0.17421,-1.749425 0.257351,-2.62446 0.09594,-0.988505 0.257163,-1.972681 0.564965,-2.918966 0.175138,-0.538432 0.258658,-0.704659 0.47584,-1.214218 0.273436,-0.569568 0.643514,-1.090717 1.164375,-1.458885 0.230156,-0.162685 0.325192,-0.191115 0.573404,-0.301017 0.395859,-0.121322 0.805127,-0.141994 1.195223,0.01565 0.343276,0.138729 0.365017,0.05662 0.301829,0.19899 0.603173,0.495661 1.106273,1.099729 1.492099,1.778384 0.191445,0.336743 0.391311,0.788548 0.553458,1.139333 0.477573,1.082093 0.870612,2.197687 1.249207,3.317274 0.114014,0.327152 0.20479,0.661726 0.293399,0.996431 0.02987,0.112819 0.05679,0.222065 0.06824,0.337926 -0.07788,0.113028 0.488706,0.287637 0.419631,0.249037 -0.46999,-0.262642 -0.293491,-0.273828 -0.554688,-0.228214 -0.787008,0.161398 -1.590265,0.227624 -2.387716,0.318267 -1.353016,0.140727 -2.701138,0.319157 -4.040279,0.558239 -1.101685,0.219292 -2.2,0.465966 -3.318793,0.579827 -0.428664,0.04263 -0.22829,0.0245 -0.601001,0.05573 0,0 0.371494,0.264089 0.371494,0.264089 v 0 c 0.357216,-0.04443 0.164176,-0.02048 0.57913,-0.07178 1.104684,-0.137914 2.18943,-0.394316 3.280675,-0.609859 1.34261,-0.240049 2.693933,-0.419595 4.052047,-0.546706 0.819912,-0.08586 1.642792,-0.149199 2.458574,-0.268457 0.03317,-0.0021 0.124645,0.01532 0.0995,-0.0064 -0.116773,-0.100928 -0.53985,-0.290785 -0.392019,-0.246417 0.155879,0.04678 0.472588,0.45157 0.470106,0.168648 -0.01717,-0.12482 -0.05462,-0.239064 -0.09345,-0.359235 -0.109641,-0.339302 -0.211656,-0.681003 -0.332362,-1.01667 -0.39421,-1.12055 -0.790985,-2.241147 -1.26751,-3.330127 -0.145759,-0.31722 -0.376817,-0.836843 -0.547904,-1.142387 -0.377582,-0.674321 -0.871276,-1.277279 -1.456881,-1.780917 -0.276357,-0.178827 -0.695221,-0.491245 -1.048287,-0.625484 -0.398446,-0.151493 -0.818314,-0.123589 -1.216715,0.0078 -0.09072,0.04371 -0.184526,0.08151 -0.272154,0.13112 -0.666029,0.377091 -1.122243,0.997751 -1.433976,1.684594 -0.209378,0.51438 -0.290822,0.685963 -0.46136,1.227186 -0.299019,0.948979 -0.46611,1.932086 -0.579119,2.918936 -0.100412,0.860457 -0.189954,1.72492 -0.343089,2.577645 z" />
    <path
       style="display:none;fill:#000000;stroke-width:0.264583"
       id="path8"
       d="m 30.570305,4.2751348 c 0.194598,0.9420527 0.425651,1.8755963 0.711472,2.794128 0.07665,0.197933 0.117726,0.3732398 0.275749,0.5263285 0.07391,0.071603 0.163036,0.1283322 0.255862,0.1727499 0.255826,0.1224113 0.513088,0.2485356 0.785972,0.3257666 0.25932,0.073392 1.036857,0.063559 1.264711,0.06661 1.228682,-0.032102 2.453968,-0.1328124 3.675758,-0.2623346 0,0 -0.356746,-0.2523961 -0.356746,-0.2523961 v 0 c -1.199369,0.1776026 -2.411195,0.275091 -3.623561,0.2923228 -0.237546,-0.00838 -0.475702,-0.00618 -0.712637,-0.025157 -0.196186,-0.015711 -0.388424,-0.08425 -0.58516,-0.078773 -0.0337,9.261e-4 0.0011,0.1027637 -0.03192,0.095954 C 31.923027,7.8670594 31.769595,7.5014854 31.67213,7.252731 31.358353,6.3523791 31.114608,5.4277823 30.989995,4.4809685 Z" />
    <path
       style="display:none;fill:#000000;stroke-width:0.264583"
       id="path9"
       d="m 19.81337,2.8464615 c 0.1,0.6553846 0.174993,1.3161367 0.158816,1.9804507 -0.0048,0.195358 -0.01042,0.3915566 -0.03802,0.5850131 -0.02646,0.185434 -0.08244,0.3654409 -0.123661,0.5481611 -0.205948,0.6072282 -0.568975,1.1144379 -1.118149,1.4547559 -0.299745,0.1857488 -0.44974,0.2188273 -0.777629,0.3341131 -0.717875,0.1661454 -1.483007,0.1768277 -2.211339,0.065415 -0.156442,-0.023931 -0.310274,-0.062589 -0.465411,-0.093884 -0.54746,-0.1265042 -1.069661,-0.3351146 -1.583667,-0.557775 0,0 0.347515,0.2744571 0.347515,0.2744571 v 0 c 0.510469,0.2122294 1.028113,0.4116578 1.568561,0.534948 0.156622,0.030739 0.311972,0.068876 0.469866,0.092218 0.57342,0.084772 1.259335,0.1022112 1.832661,0.012256 0.13351,-0.020947 0.26373,-0.059175 0.395595,-0.088762 0.333235,-0.121835 0.476488,-0.1543915 0.780906,-0.3469298 0.56974,-0.360349 0.902391,-0.8581367 1.1147,-1.4907289 0.04103,-0.1851674 0.09674,-0.3676822 0.123083,-0.5555015 0.02731,-0.1947047 0.03174,-0.3921159 0.03741,-0.588645 0.01878,-0.651456 -0.04414,-1.299883 -0.08816,-1.9488033 z" />
    <path
       style="display:inline;fill:#000000;stroke-width:0.264583"
       id="path10"
       d="m 11.710064,10.011775 c 0.495505,0.618789 1.076996,1.153639 1.679926,1.664597 1.06002,0.862759 2.110544,1.73668 3.156803,2.616068 0.837737,0.726368 1.671684,1.462475 2.580415,2.100599 0.149269,0.104819 0.303263,0.202743 0.454895,0.304115 0.646339,0.407626 1.30472,0.799545 1.983531,1.150959 0.0824,0.0434 0.164564,0.06313 0.256034,0.06501 0,0 -0.395575,-0.290862 -0.395575,-0.290862 v 0 c -0.0805,-0.0081 -0.154887,-0.03095 -0.227446,-0.06842 -0.551639,-0.282357 -0.680168,-0.366513 -1.240217,-0.709516 -0.154011,-0.101667 -0.310447,-0.199753 -0.462035,-0.304999 -0.919831,-0.638636 -1.764253,-1.377262 -2.609366,-2.109384 -1.034619,-0.870515 -2.069883,-1.73999 -3.114313,-2.598715 -0.58633,-0.497412 -1.16088,-1.014533 -1.623208,-1.633468 z" />
    <path
       style="display:inline;fill:#000000;stroke-width:0.264583"
       id="path11"
       d="m 22.16247,10.374814 c -0.04739,0.0404 -0.09285,0.0832 -0.142177,0.121208 -0.2949,0.227232 -0.616284,0.420916 -0.931696,0.617433 -0.210447,0.131118 -0.786224,0.486382 -0.981503,0.60698 -1.23415,0.760049 -2.3544,1.680488 -3.458272,2.614588 -0.780739,0.675573 -1.577906,1.332679 -2.345938,2.022914 -0.471494,0.423736 -0.605859,0.563607 -1.060649,1.0067 -0.780732,0.746364 -1.483641,1.569391 -2.277242,2.302208 0,0 0.377729,0.232113 0.377729,0.232113 v 0 c 0.747943,-0.771421 1.444941,-1.590756 2.216502,-2.33946 0.390289,-0.378835 0.654449,-0.641526 1.056645,-1.006984 0.763719,-0.693959 1.561195,-1.349357 2.340526,-2.025365 1.110167,-0.929529 2.236334,-1.845682 3.480419,-2.593546 0.716848,-0.424663 1.449983,-0.827045 2.135639,-1.301268 z" />
    <path
       style="fill:#000000;stroke-width:0.264583"
       id="path12"
       d="m 29.723344,9.4477648 c 0.279617,0.4543288 0.628846,0.8593632 0.952183,1.2818612 0.159731,0.208718 0.439899,0.597261 0.593968,0.809378 0.700699,0.912592 1.457312,1.78148 2.252073,2.613037 0.906364,0.95883 1.857433,1.875387 2.842868,2.75249 0.701217,0.58409 1.381107,1.192429 2.059964,1.802072 0.236627,0.216101 0.489294,0.411857 0.761206,0.580975 0,0 0.435962,0.168311 0.435962,0.168311 v 0 C 39.339472,19.290711 39.080101,19.093599 38.836957,18.874732 38.140513,18.25796 37.438721,17.647438 36.724542,17.051176 35.736141,16.177316 34.784887,15.261029 33.879401,14.301261 33.092196,13.47352 32.343989,12.608699 31.647786,11.702743 31.547551,11.56432 31.162908,11.031602 31.058622,10.893684 30.748634,10.483727 30.408731,10.09182 30.15652,9.6414837 Z" />
    <path
       style="fill:#000000;stroke-width:0.264583"
       id="path13"
       d="m 28.623585,18.482997 c 0.31736,-0.1704 0.662165,-0.278422 0.961861,-0.481541 0.262729,-0.178067 0.62983,-0.475399 0.865849,-0.660855 1.27054,-1.009378 2.466541,-2.107114 3.66358,-3.20128 0.998796,-0.914731 1.983845,-1.844237 2.997919,-2.742188 0.513802,-0.482448 1.07946,-0.902406 1.632262,-1.337593 0.07221,-0.05409 0.142793,-0.1110139 0.20355,-0.1778731 0,0 -0.421733,-0.2554851 -0.421733,-0.2554851 v 0 c -0.05744,0.064067 -0.115377,0.1274363 -0.180353,0.1842381 -0.520494,0.4629491 -1.069848,0.8930781 -1.572324,1.3765841 -1.003988,0.904356 -1.972315,1.84711 -2.966082,2.762626 -1.188231,1.105922 -2.387965,2.205554 -3.686178,3.182662 -0.381124,0.273047 -0.760589,0.567162 -1.181055,0.780194 -0.09418,0.04772 -0.431927,0.186522 -0.524166,0.224617 -0.06441,0.0266 -0.129011,0.05271 -0.193516,0.07907 z" />
    <path
       style="fill:#000000;stroke-width:0.264583"
       id="path14"
       d="m 24.075614,25.675946 c 0.09881,-0.678168 0.372782,-1.311356 0.710731,-1.901905 0.116016,-0.149481 0.357623,-0.620677 0.610938,-0.56591 0.04706,0.01017 0.08685,0.04158 0.130279,0.06237 -0.07992,-0.03677 -0.199599,-0.188591 -0.239756,-0.110318 -0.04246,0.08276 0.134144,0.129531 0.192905,0.201639 0.07104,0.08718 0.137727,0.178476 0.195489,0.274968 0.209724,0.350343 0.320403,0.733628 0.432277,1.122355 0.07055,0.304313 0.120709,0.61231 0.163272,0.921516 0,0 0.410837,0.201197 0.410837,0.201197 v 0 c -0.05695,-0.31417 -0.117864,-0.62757 -0.187815,-0.939158 -0.139011,-0.496843 -0.282693,-0.987205 -0.597216,-1.405978 -0.05433,-0.07234 -0.105724,-0.15049 -0.178026,-0.204873 -0.177574,-0.133566 -0.376587,-0.235947 -0.564881,-0.353921 -0.04938,-0.01513 -0.09661,-0.04187 -0.148133,-0.04541 -0.274317,-0.01882 -0.478582,0.447824 -0.60248,0.621536 -0.325578,0.598465 -0.595235,1.228147 -0.750278,1.893754 z" />
  </g>
</svg>
